<mxfile host="app.diagrams.net" modified="2023-03-23T13:33:29.376Z" agent="5.0 (Windows NT 10.0; Win64; x64) AppleWebKit/537.36 (KHTML, like Gecko) Chrome/111.0.0.0 Safari/537.36" etag="B3ciAlBzgWnNOW6_ej5h" version="21.0.10" type="github">
  <diagram name="Page-1" id="kHAkauvVDEeDi9y9AeIr">
    <mxGraphModel dx="675" dy="276" grid="1" gridSize="10" guides="1" tooltips="1" connect="1" arrows="1" fold="1" page="1" pageScale="1" pageWidth="827" pageHeight="1169" math="0" shadow="0">
      <root>
        <mxCell id="0" />
        <mxCell id="1" parent="0" />
        <mxCell id="hqVw_S2-HiF9uFQSkLLC-2" value="CatÃ©gorie" style="swimlane;childLayout=stackLayout;horizontal=1;startSize=50;horizontalStack=0;rounded=1;fontSize=14;fontStyle=0;strokeWidth=2;resizeParent=0;resizeLast=1;shadow=0;dashed=0;align=center;arcSize=4;whiteSpace=wrap;html=1;" vertex="1" parent="1">
          <mxGeometry x="170" y="570" width="160" height="120" as="geometry" />
        </mxCell>
        <mxCell id="hqVw_S2-HiF9uFQSkLLC-3" value="id_categorie&lt;br&gt;nom_categorie" style="align=left;strokeColor=none;fillColor=none;spacingLeft=4;fontSize=12;verticalAlign=top;resizable=0;rotatable=0;part=1;html=1;" vertex="1" parent="hqVw_S2-HiF9uFQSkLLC-2">
          <mxGeometry y="50" width="160" height="70" as="geometry" />
        </mxCell>
        <mxCell id="hqVw_S2-HiF9uFQSkLLC-4" value="Jeu" style="swimlane;childLayout=stackLayout;horizontal=1;startSize=50;horizontalStack=0;rounded=1;fontSize=14;fontStyle=0;strokeWidth=2;resizeParent=0;resizeLast=1;shadow=0;dashed=0;align=center;arcSize=4;whiteSpace=wrap;html=1;" vertex="1" parent="1">
          <mxGeometry x="160" y="120" width="240" height="280" as="geometry" />
        </mxCell>
        <mxCell id="hqVw_S2-HiF9uFQSkLLC-5" value="id_jeu&lt;br&gt;nom_jeu&lt;br&gt;description_jeu&lt;br&gt;prix_jeu&lt;br&gt;prix_jeu&lt;br&gt;age_mini_jeu&lt;br&gt;dure_partie_jeu&lt;br&gt;langue_jeu&lt;br&gt;createur_jeu&lt;br&gt;illustrateur_jeu (nullable)&lt;br&gt;editeur_jeu&lt;br&gt;nb_joueurs_jeu&lt;br&gt;descriptifs_jeu&lt;br&gt;note_jeu&lt;br&gt;illustration_jeu" style="align=left;strokeColor=none;fillColor=none;spacingLeft=4;fontSize=12;verticalAlign=top;resizable=0;rotatable=0;part=1;html=1;" vertex="1" parent="hqVw_S2-HiF9uFQSkLLC-4">
          <mxGeometry y="50" width="240" height="230" as="geometry" />
        </mxCell>
        <mxCell id="hqVw_S2-HiF9uFQSkLLC-9" value="" style="endArrow=none;html=1;rounded=0;exitX=0.6;exitY=0;exitDx=0;exitDy=0;exitPerimeter=0;entryX=0.448;entryY=1.015;entryDx=0;entryDy=0;entryPerimeter=0;" edge="1" parent="1" source="hqVw_S2-HiF9uFQSkLLC-2" target="hqVw_S2-HiF9uFQSkLLC-5">
          <mxGeometry relative="1" as="geometry">
            <mxPoint x="198.07999999999993" y="554.96" as="sourcePoint" />
            <mxPoint x="220" y="400" as="targetPoint" />
          </mxGeometry>
        </mxCell>
      </root>
    </mxGraphModel>
  </diagram>
</mxfile>
